<svg width="16" height="17" viewBox="0 0 16 17" fill="none" xmlns="http://www.w3.org/2000/svg">
<path fill-rule="evenodd" clip-rule="evenodd" d="M6.99618 1.03867C6.67701 1.60983 6.39101 2.13483 6.36051 2.20533C6.32984 2.27567 7.54868 2.33333 9.06884 2.33333C10.589 2.33333 11.8327 2.36567 11.8327 2.40517C11.8327 2.5105 6.82151 11.2245 6.66418 11.3925C6.52968 11.5365 5.58818 10.0118 3.64351 6.5L3.25288 5.79455C2.83676 5.04308 2.05698 4.56492 1.19851 4.53483L0.267082 4.50207C0.0675008 4.49505 -0.0638278 4.70796 0.032012 4.88317C0.699179 6.10233 6.56451 16.1555 6.58935 16.1227C6.60568 16.101 7.72518 14.1708 9.07734 11.8333C10.4293 9.49583 12.5025 5.92033 13.6842 3.88767C14.8658 1.855 15.8327 0.148667 15.8327 0.096C15.8327 0.0431667 13.975 0 11.7045 0H8.76606C8.03149 0 7.35439 0.397361 6.99618 1.03867Z" fill="url(#paint0_linear_2240_138)"/>
<defs>
<linearGradient id="paint0_linear_2240_138" x1="-0.185154" y1="0" x2="17.2253" y2="1.13781" gradientUnits="userSpaceOnUse">
<stop stop-color="#8D75EF"/>
<stop offset="1" stop-color="#7556EF"/>
</linearGradient>
</defs>
</svg>
