<svg width="150" height="150" viewBox="0 0 150 150" fill="none" xmlns="http://www.w3.org/2000/svg">
<rect width="150" height="150" rx="75" fill="#F7F8FA"/>
<path d="M75 80.8594C78.236 80.8594 80.8594 78.236 80.8594 75C80.8594 71.764 78.236 69.1406 75 69.1406C71.764 69.1406 69.1406 71.764 69.1406 75C69.1406 78.236 71.764 80.8594 75 80.8594Z" stroke="#785AEF" stroke-width="3" stroke-miterlimit="10" stroke-linecap="round" stroke-linejoin="round"/>
<path d="M97.3828 80.8594C100.619 80.8594 103.242 78.236 103.242 75C103.242 71.764 100.619 69.1406 97.3828 69.1406C94.1468 69.1406 91.5234 71.764 91.5234 75C91.5234 78.236 94.1468 80.8594 97.3828 80.8594Z" stroke="#785AEF" stroke-width="3" stroke-miterlimit="10" stroke-linecap="round" stroke-linejoin="round"/>
<path d="M52.6172 80.8594C55.8532 80.8594 58.4766 78.236 58.4766 75C58.4766 71.764 55.8532 69.1406 52.6172 69.1406C49.3811 69.1406 46.7578 71.764 46.7578 75C46.7578 78.236 49.3811 80.8594 52.6172 80.8594Z" stroke="#785AEF" stroke-width="3" stroke-miterlimit="10" stroke-linecap="round" stroke-linejoin="round"/>
</svg>
