<svg width="80" height="80" viewBox="0 0 80 80" fill="none" xmlns="http://www.w3.org/2000/svg">
<rect width="80" height="80" rx="40" fill="white"/>
<path d="M34.3333 25.8334V30.0834" stroke="#785AEF" stroke-width="2.5" stroke-miterlimit="10" stroke-linecap="round" stroke-linejoin="round"/>
<path d="M45.6667 25.8334V30.0834" stroke="#785AEF" stroke-width="2.5" stroke-miterlimit="10" stroke-linecap="round" stroke-linejoin="round"/>
<path d="M27.9583 35.8774H52.0416" stroke="#785AEF" stroke-width="2.5" stroke-miterlimit="10" stroke-linecap="round" stroke-linejoin="round"/>
<path d="M54.1666 49.9167C54.1666 50.9792 53.8691 51.985 53.3449 52.835C52.3674 54.4783 50.5683 55.5833 48.4999 55.5833C47.0691 55.5833 45.7658 55.0592 44.7741 54.1667C44.3349 53.7983 43.9524 53.345 43.6549 52.835C43.1308 51.985 42.8333 50.9792 42.8333 49.9167C42.8333 46.7858 45.3691 44.25 48.4999 44.25C50.1999 44.25 51.7158 45.0008 52.7499 46.1766C53.6283 47.1825 54.1666 48.4858 54.1666 49.9167Z" stroke="#785AEF" stroke-width="2.5" stroke-miterlimit="10" stroke-linecap="round" stroke-linejoin="round"/>
<path d="M46.29 49.9167L47.6925 51.3192L50.71 48.5283" stroke="#785AEF" stroke-width="2.5" stroke-linecap="round" stroke-linejoin="round"/>
<path d="M52.75 35.0417V46.1767C51.7158 45.0009 50.2 44.25 48.5 44.25C45.3692 44.25 42.8333 46.7859 42.8333 49.9167C42.8333 50.9792 43.1308 51.985 43.655 52.835C43.9525 53.345 44.335 53.7984 44.7742 54.1667H34.3333C29.375 54.1667 27.25 51.3334 27.25 47.0834V35.0417C27.25 30.7917 29.375 27.9584 34.3333 27.9584H45.6667C50.625 27.9584 52.75 30.7917 52.75 35.0417Z" stroke="#785AEF" stroke-width="2.5" stroke-miterlimit="10" stroke-linecap="round" stroke-linejoin="round"/>
<path d="M39.9935 42.4084H40.0062" stroke="#785AEF" stroke-width="2.5" stroke-linecap="round" stroke-linejoin="round"/>
<path d="M34.7504 42.4084H34.7631" stroke="#785AEF" stroke-width="2.5" stroke-linecap="round" stroke-linejoin="round"/>
<path d="M34.7504 46.6584H34.7631" stroke="#785AEF" stroke-width="2.5" stroke-linecap="round" stroke-linejoin="round"/>
</svg>
