<svg width="150" height="150" viewBox="0 0 150 150" fill="none" xmlns="http://www.w3.org/2000/svg">
<rect width="150" height="150" rx="75" fill="#F7F8FA"/>
<g clip-path="url(#clip0_1925_435)">
<mask id="mask0_1925_435" style="mask-type:luminance" maskUnits="userSpaceOnUse" x="54" y="50" width="50" height="50">
<path d="M54 50H104V100H54V50Z" fill="white"/>
</mask>
<g mask="url(#mask0_1925_435)">
<path d="M58.3945 92.6758V78.0273H99.6055V92.6758" stroke="#785AEF" stroke-width="3" stroke-miterlimit="10" stroke-linecap="round" stroke-linejoin="round"/>
<path d="M102.535 92.6758H55.4648C55.4648 95.9118 58.0882 98.5352 61.3242 98.5352H96.6758C99.9118 98.5352 102.535 95.9118 102.535 92.6758Z" stroke="#785AEF" stroke-width="3" stroke-miterlimit="10" stroke-linecap="round" stroke-linejoin="round"/>
<path d="M81.9297 80.957C81.9297 82.5751 80.618 83.8867 79 83.8867C77.382 83.8867 76.0703 82.5751 76.0703 80.957C76.0703 79.339 77.382 78.0273 79 78.0273C80.618 78.0273 81.9297 79.339 81.9297 80.957Z" stroke="#785AEF" stroke-width="3" stroke-miterlimit="10" stroke-linecap="round" stroke-linejoin="round"/>
<path d="M61.3242 78.0273V66.3086H96.6758V78.0273" stroke="#785AEF" stroke-width="3" stroke-miterlimit="10" stroke-linecap="round" stroke-linejoin="round"/>
<path d="M70.2109 66.3086V63.3789C70.2109 61.7608 71.5227 60.4492 73.1406 60.4492C74.7586 60.4492 76.0703 61.7608 76.0703 63.3789V66.3086" stroke="#785AEF" stroke-width="3" stroke-miterlimit="10" stroke-linecap="round" stroke-linejoin="round"/>
<path d="M73.1406 51.4648L75.6794 55.9589C75.928 56.3894 76.0703 56.8891 76.0703 57.4219C76.0703 59.0399 74.7586 60.4492 73.1406 60.4492C71.5227 60.4492 70.2109 59.0399 70.2109 57.4219C70.2109 56.8891 70.3533 56.3894 70.6019 55.9589L73.1406 51.4648Z" stroke="#785AEF" stroke-width="3" stroke-miterlimit="10" stroke-linecap="round" stroke-linejoin="round"/>
<path d="M81.9297 66.3086V63.3789C81.9297 61.7608 83.2414 60.4492 84.8594 60.4492C86.4773 60.4492 87.7891 61.7608 87.7891 63.3789V66.3086" stroke="#785AEF" stroke-width="3" stroke-miterlimit="10" stroke-linecap="round" stroke-linejoin="round"/>
<path d="M84.8594 51.4648L87.3981 55.9589C87.6468 56.3894 87.7891 56.8891 87.7891 57.4219C87.7891 59.0399 86.4773 60.4492 84.8594 60.4492C83.2414 60.4492 81.9297 59.0399 81.9297 57.4219C81.9297 56.8891 82.0721 56.3894 82.3206 55.9589L84.8594 51.4648Z" stroke="#785AEF" stroke-width="3" stroke-miterlimit="10" stroke-linecap="round" stroke-linejoin="round"/>
<path d="M90.7188 92.6758C85.2502 92.6758 80.6567 88.9301 79.3635 83.8644" stroke="#785AEF" stroke-width="3" stroke-miterlimit="10" stroke-linecap="round" stroke-linejoin="round"/>
<path d="M78.6365 83.8644C77.3434 88.9301 72.7498 92.6758 67.2812 92.6758" stroke="#785AEF" stroke-width="3" stroke-miterlimit="10" stroke-linecap="round" stroke-linejoin="round"/>
<path d="M73.1406 78.0273V72.168C76.3767 72.168 79 74.7913 79 78.0273" stroke="#785AEF" stroke-width="3" stroke-miterlimit="10" stroke-linecap="round" stroke-linejoin="round"/>
<path d="M61.3242 72.168C64.5603 72.168 67.2812 74.7913 67.2812 78.0273" stroke="#785AEF" stroke-width="3" stroke-miterlimit="10" stroke-linecap="round" stroke-linejoin="round"/>
<path d="M79 78.0273C79 74.7913 81.6233 72.168 84.8594 72.168V78.0273" stroke="#785AEF" stroke-width="3" stroke-miterlimit="10" stroke-linecap="round" stroke-linejoin="round"/>
<path d="M90.7188 78.0273C90.7188 74.7913 93.4397 72.168 96.6758 72.168" stroke="#785AEF" stroke-width="3" stroke-miterlimit="10" stroke-linecap="round" stroke-linejoin="round"/>
<path d="M86.3242 83.8867C86.3242 83.0777 86.9801 82.4219 87.7891 82.4219C88.598 82.4219 89.2539 83.0777 89.2539 83.8867C89.2539 84.6957 88.598 85.3516 87.7891 85.3516C86.9801 85.3516 86.3242 84.6957 86.3242 83.8867Z" fill="#785AEF"/>
<path d="M92.1836 83.8867C92.1836 83.0777 92.8395 82.4219 93.6484 82.4219C94.4574 82.4219 95.1133 83.0777 95.1133 83.8867C95.1133 84.6957 94.4574 85.3516 93.6484 85.3516C92.8395 85.3516 92.1836 84.6957 92.1836 83.8867Z" fill="#785AEF"/>
<path d="M62.8867 83.8867C62.8867 83.0777 63.5426 82.4219 64.3516 82.4219C65.1605 82.4219 65.8164 83.0777 65.8164 83.8867C65.8164 84.6957 65.1605 85.3516 64.3516 85.3516C63.5426 85.3516 62.8867 84.6957 62.8867 83.8867Z" fill="#785AEF"/>
<path d="M68.7461 83.8867C68.7461 83.0777 69.402 82.4219 70.2109 82.4219C71.0199 82.4219 71.6758 83.0777 71.6758 83.8867C71.6758 84.6957 71.0199 85.3516 70.2109 85.3516C69.402 85.3516 68.7461 84.6957 68.7461 83.8867Z" fill="#785AEF"/>
</g>
</g>
<defs>
<clipPath id="clip0_1925_435">
<rect width="50" height="50" fill="white" transform="translate(54 50)"/>
</clipPath>
</defs>
</svg>
