<svg width="150" height="150" viewBox="0 0 150 150" fill="none" xmlns="http://www.w3.org/2000/svg">
<rect width="150" height="150" rx="75" fill="#F7F8FA"/>
<g clip-path="url(#clip0_1925_425)">
<path d="M103.226 50.1733C102.75 49.9184 102.172 49.9464 101.723 50.2461C98.9533 52.0922 96.071 54.3174 94.0095 58.864C89.961 55.1302 84.6105 53.0274 79 53.0274C75.3935 53.0274 71.8029 53.9194 68.6484 55.571V51.4649C68.6484 50.6559 67.9926 50 67.1836 50C66.3746 50 65.7188 50.6559 65.7188 51.4649V61.8164H62.7891V51.4649C62.7891 50.6559 62.1332 50 61.3242 50C60.5152 50 59.8594 50.6559 59.8594 51.4649V61.8164H56.9297V51.4649C56.9297 50.6559 56.2738 50 55.4648 50C54.6559 50 54 50.6559 54 51.4649C54 52.0671 54 65.5304 54 66.2109C54 68.1206 55.2247 69.7488 56.9297 70.3535V95.6055C56.9297 98.0286 58.9011 100 61.3242 100C63.7474 100 65.7188 98.0286 65.7188 95.6055V92.5814C69.5452 95.4623 74.2355 97.0703 79 97.0703C85.169 97.0703 91.0608 94.4152 95.2109 89.938V95.6055C95.2109 98.0286 97.1823 100 99.6055 100C102.029 100 104 98.0286 104 95.6055C104 95.1076 104 52.1486 104 51.4649C104 50.9246 103.703 50.4282 103.226 50.1733ZM68.6484 58.9518C71.6854 57.0162 75.3312 55.957 79 55.957C84.3014 55.957 89.3316 58.1184 92.9266 61.9109C92.5876 63.1916 92.3797 64.505 92.3097 65.8267C89.333 61.5958 84.4686 58.8867 79 58.8867C75.196 58.8867 71.5271 60.2312 68.6484 62.593V58.9518ZM66.7899 69.7966C67.7692 69.102 68.4523 68.0174 68.6116 66.7706C71.1087 63.661 74.9604 61.8164 79 61.8164C86.3232 61.8164 92.2812 67.7306 92.2812 75C92.2812 82.2694 86.3232 88.1836 79 88.1836C71.6768 88.1836 65.7188 82.2695 65.7188 75C65.7188 73.1896 66.0793 71.4412 66.7899 69.7966ZM62.7891 95.6055C62.7891 96.4132 62.1319 97.0703 61.3242 97.0703C60.5165 97.0703 59.8594 96.4132 59.8594 95.6055V70.6055H62.7891V95.6055ZM64.2539 67.6758H58.3945C57.5868 67.6758 56.9297 67.0187 56.9297 66.2109V64.7461H65.7188V66.2109C65.7188 67.0187 65.0616 67.6758 64.2539 67.6758ZM95.2109 85.1492C91.7042 90.7046 85.5308 94.1406 79 94.1406C74.1067 94.1406 69.3001 92.1786 65.7188 88.7401V84.2144C68.6715 88.3836 73.5053 91.1133 79 91.1133C85.2855 91.1133 90.7582 87.5141 93.4485 82.2939C93.5446 82.3137 93.6441 82.3242 93.7461 82.3242H95.2109V85.1492ZM101.07 95.6055C101.07 96.4132 100.413 97.0703 99.6055 97.0703C98.7978 97.0703 98.1406 96.4132 98.1406 95.6055V80.8594C98.1406 80.0504 97.4848 79.3945 96.6758 79.3945H95.2109V66.8294C95.2109 62.0052 97.4219 57.3458 101.07 54.3073C101.07 55.4763 101.07 94.844 101.07 95.6055Z" fill="#785AEF"/>
</g>
<defs>
<clipPath id="clip0_1925_425">
<rect width="50" height="50" fill="white" transform="translate(54 50)"/>
</clipPath>
</defs>
</svg>
