<svg width="80" height="80" viewBox="0 0 80 80" fill="none" xmlns="http://www.w3.org/2000/svg">
<path d="M0 40C0 17.9086 17.9086 0 40 0C62.0914 0 80 17.9086 80 40C80 62.0914 62.0914 80 40 80C17.9086 80 0 62.0914 0 40Z" fill="white"/>
<path d="M43.4568 49.9876L45.6101 52.1409L49.9168 47.8342" stroke="#785AEF" stroke-width="2.5" stroke-linecap="round" stroke-linejoin="round"/>
<path d="M40.2267 38.3992C40.085 38.385 39.915 38.385 39.7592 38.3992C36.3875 38.2859 33.71 35.5234 33.71 32.1234C33.6958 28.6525 36.515 25.8334 39.9858 25.8334C43.4567 25.8334 46.2758 28.6525 46.2758 32.1234C46.2758 35.5234 43.5842 38.2859 40.2267 38.3992Z" stroke="#785AEF" stroke-width="2.5" stroke-linecap="round" stroke-linejoin="round"/>
<path d="M39.9859 53.8975C37.4076 53.8975 34.8434 53.2458 32.8884 51.9425C29.4601 49.6475 29.4601 45.9075 32.8884 43.6266C36.7842 41.02 43.1734 41.02 47.0692 43.6266" stroke="#785AEF" stroke-width="2.5" stroke-linecap="round" stroke-linejoin="round"/>
</svg>
