<svg width="26" height="26" viewBox="0 0 26 26" fill="none" xmlns="http://www.w3.org/2000/svg">
<path d="M17.5392 2.1665H8.46083C4.5175 2.1665 2.16667 4.51734 2.16667 8.46067V17.5282C2.16667 21.4823 4.5175 23.8332 8.46083 23.8332H17.5283C21.4717 23.8332 23.8225 21.4823 23.8225 17.539V8.46067C23.8333 4.51734 21.4825 2.1665 17.5392 2.1665ZM11.8625 18.969C11.5483 19.2832 10.9525 19.5865 10.5192 19.6515L7.85417 20.0307C7.75667 20.0415 7.65917 20.0523 7.56167 20.0523C7.1175 20.0523 6.70583 19.9007 6.41333 19.6082C6.05583 19.2507 5.90417 18.7307 5.99083 18.1565L6.37 15.4915C6.435 15.0473 6.7275 14.4623 7.0525 14.1482L11.8842 9.3165C11.9708 9.544 12.0575 9.7715 12.1767 10.0315C12.285 10.259 12.4042 10.4973 12.5342 10.714C12.6425 10.8982 12.7617 11.0715 12.8592 11.2015C12.9783 11.3857 13.1192 11.559 13.2058 11.6565C13.26 11.7323 13.3033 11.7865 13.325 11.8082C13.5958 12.1332 13.91 12.4365 14.1808 12.664C14.2567 12.7398 14.3 12.7832 14.3217 12.794C14.4842 12.924 14.6467 13.054 14.7875 13.1515C14.9608 13.2815 15.1342 13.4007 15.3183 13.4982C15.535 13.6282 15.7733 13.7473 16.0117 13.8665C16.2608 13.9748 16.4883 14.0723 16.7158 14.1482L11.8625 18.969ZM18.8175 12.014L17.8208 13.0215C17.7558 13.0865 17.6692 13.119 17.5825 13.119C17.55 13.119 17.5067 13.119 17.485 13.1082C15.2858 12.4798 13.5308 10.7248 12.9025 8.52567C12.87 8.4065 12.9025 8.2765 12.9892 8.20067L13.9967 7.19317C15.6433 5.5465 17.2142 5.579 18.8283 7.19317C19.6517 8.0165 20.0525 8.80734 20.0525 9.63067C20.0417 10.4107 19.6408 11.1907 18.8175 12.014Z" fill="#6E8FA2"/>
</svg>
