<svg width="26" height="26" viewBox="0 0 26 26" fill="none" xmlns="http://www.w3.org/2000/svg">
<path d="M9.75 23.8333H16.25C21.6667 23.8333 23.8333 21.6666 23.8333 16.25V9.74996C23.8333 4.33329 21.6667 2.16663 16.25 2.16663H9.75C4.33333 2.16663 2.16667 4.33329 2.16667 9.74996V16.25C2.16667 21.6666 4.33333 23.8333 9.75 23.8333Z" stroke="#6E8FA2" stroke-width="1.625" stroke-linecap="round" stroke-linejoin="round"/>
<path d="M16.7917 20.0417C17.9833 20.0417 18.9583 19.0667 18.9583 17.875V8.12504C18.9583 6.93337 17.9833 5.95837 16.7917 5.95837C15.6 5.95837 14.625 6.93337 14.625 8.12504V17.875C14.625 19.0667 15.5892 20.0417 16.7917 20.0417Z" stroke="#6E8FA2" stroke-width="1.625" stroke-linecap="round" stroke-linejoin="round"/>
<path d="M9.20833 20.0416C10.4 20.0416 11.375 19.0666 11.375 17.875V14.0833C11.375 12.8916 10.4 11.9166 9.20833 11.9166C8.01666 11.9166 7.04166 12.8916 7.04166 14.0833V17.875C7.04166 19.0666 8.00583 20.0416 9.20833 20.0416Z" stroke="#6E8FA2" stroke-width="1.625" stroke-linecap="round" stroke-linejoin="round"/>
</svg>
