<svg width="80" height="80" viewBox="0 0 80 80" fill="none" xmlns="http://www.w3.org/2000/svg">
<rect width="80" height="80" rx="40" fill="#785AEF" fill-opacity="0.1"/>
<path d="M34.3333 25.8333V30.0833" stroke="#785AEF" stroke-width="2.5" stroke-miterlimit="10" stroke-linecap="round" stroke-linejoin="round"/>
<path d="M45.6667 25.8333V30.0833" stroke="#785AEF" stroke-width="2.5" stroke-miterlimit="10" stroke-linecap="round" stroke-linejoin="round"/>
<path d="M27.9583 35.8774H52.0416" stroke="#785AEF" stroke-width="2.5" stroke-miterlimit="10" stroke-linecap="round" stroke-linejoin="round"/>
<path d="M54.1666 49.9167C54.1666 50.9792 53.8691 51.985 53.345 52.835C52.3675 54.4783 50.5683 55.5833 48.5 55.5833C47.0691 55.5833 45.7658 55.0592 44.7742 54.1667C44.335 53.7983 43.9525 53.345 43.655 52.835C43.1308 51.985 42.8333 50.9792 42.8333 49.9167C42.8333 46.7858 45.3691 44.25 48.5 44.25C50.2 44.25 51.7158 45.0008 52.75 46.1766C53.6283 47.1825 54.1666 48.4858 54.1666 49.9167Z" stroke="#785AEF" stroke-width="2.5" stroke-miterlimit="10" stroke-linecap="round" stroke-linejoin="round"/>
<path d="M46.29 49.9167L47.6925 51.3192L50.71 48.5283" stroke="#785AEF" stroke-width="2.5" stroke-linecap="round" stroke-linejoin="round"/>
<path d="M52.75 35.0416V46.1766C51.7158 45.0007 50.2 44.2499 48.5 44.2499C45.3692 44.2499 42.8333 46.7858 42.8333 49.9166C42.8333 50.9791 43.1308 51.9849 43.655 52.8349C43.9525 53.3449 44.335 53.7983 44.7742 54.1666H34.3333C29.375 54.1666 27.25 51.3333 27.25 47.0833V35.0416C27.25 30.7916 29.375 27.9583 34.3333 27.9583H45.6667C50.625 27.9583 52.75 30.7916 52.75 35.0416Z" stroke="#785AEF" stroke-width="2.5" stroke-miterlimit="10" stroke-linecap="round" stroke-linejoin="round"/>
<path d="M39.9936 42.4083H40.0063" stroke="#785AEF" stroke-width="2.5" stroke-linecap="round" stroke-linejoin="round"/>
<path d="M34.7503 42.4083H34.763" stroke="#785AEF" stroke-width="2.5" stroke-linecap="round" stroke-linejoin="round"/>
<path d="M34.7503 46.6583H34.763" stroke="#785AEF" stroke-width="2.5" stroke-linecap="round" stroke-linejoin="round"/>
</svg>
