<svg width="150" height="150" viewBox="0 0 150 150" fill="none" xmlns="http://www.w3.org/2000/svg">
<rect width="150" height="150" rx="75" fill="#F7F8FA"/>
<g clip-path="url(#clip0_1925_424)">
<path d="M75.3669 57.5772C74.6568 56.841 73.4256 57.0409 72.9877 57.9689L54.1401 97.9101C53.8781 98.4654 53.9901 99.125 54.4208 99.5626C54.8521 100.001 55.5101 100.122 56.0686 99.8698L96.0098 81.8035C96.9306 81.387 97.1637 80.1813 96.4606 79.4521L75.3669 57.5772ZM73.949 62.7967L80.252 85.7157L74.9806 88.1001L70.2048 70.7313L73.949 62.7967ZM67.0077 91.7064L64.5408 82.7344L68.285 74.7997L72.2782 89.3224L67.0077 91.7064ZM62.6209 86.8027L64.3054 92.9288L58.4886 95.5598L62.6209 86.8027ZM82.9542 84.4935L77.2497 63.7504L92.9096 79.9905L82.9542 84.4935Z" fill="#785AEF"/>
<path d="M82.6461 58.9638L82.3772 59.5017C82.0153 60.2254 82.3086 61.1052 83.0322 61.4671C83.7572 61.8296 84.6363 61.5342 84.9975 60.812L85.2664 60.2742C86.788 57.2312 86.6702 53.6617 84.9515 50.7256C84.5427 50.0273 83.6453 49.7927 82.9473 50.2013C82.2491 50.61 82.0145 51.5074 82.4231 52.2055C83.6397 54.2835 83.7231 56.81 82.6461 58.9638Z" fill="#785AEF"/>
<path d="M103.275 69.0484C100.339 67.3298 96.7694 67.2118 93.7264 68.7335L93.1885 69.0024C92.4648 69.3642 92.1716 70.2441 92.5334 70.9678C92.79 71.4811 93.3073 71.7778 93.8447 71.7778C94.268 71.7778 94.4935 71.6255 95.0365 71.3539C97.1904 70.2769 99.7169 70.3603 101.795 71.5768C102.493 71.9853 103.39 71.751 103.799 71.0526C104.208 70.3545 103.973 69.4571 103.275 69.0484Z" fill="#785AEF"/>
<path d="M102.535 50.0002C101.726 50.0002 101.07 50.6561 101.07 51.4651V51.5627C101.07 52.4782 100.325 53.2229 99.4099 53.2229C96.6321 53.2229 94.7224 55.396 94.7224 57.8127C94.7224 58.6217 95.3783 59.2776 96.1873 59.2776C96.9962 59.2776 97.6521 58.6217 97.6521 57.8127C97.6521 56.8973 98.3968 56.1526 99.3123 56.1526C101.939 56.1526 104 54.1694 104 51.4651C104 50.6561 103.344 50.0002 102.535 50.0002Z" fill="#785AEF"/>
<path d="M91.5017 55.3713C92.3108 55.3713 92.9666 54.7155 92.9666 53.9065C92.9666 53.0975 92.3108 52.4417 91.5017 52.4417C90.6845 52.4417 90.0364 53.1043 90.0364 53.9065C90.0364 54.7156 90.6927 55.3713 91.5017 55.3713Z" fill="#785AEF"/>
<path d="M89.9392 65.5275C90.7483 65.5275 91.4041 64.8716 91.4041 64.0626C91.4041 63.2536 90.7483 62.5978 89.9392 62.5978C89.122 62.5978 88.4739 63.2605 88.4739 64.0626C88.4739 64.8717 89.1302 65.5275 89.9392 65.5275Z" fill="#785AEF"/>
<path d="M101.56 62.5001C101.56 61.6978 100.911 61.0353 100.094 61.0353C99.2855 61.0353 98.6301 61.6911 98.6301 62.5001C98.6301 63.3091 99.2865 63.965 100.095 63.965C100.905 63.965 101.56 63.3092 101.56 62.5001Z" fill="#785AEF"/>
</g>
<defs>
<clipPath id="clip0_1925_424">
<rect width="50" height="50" fill="white" transform="translate(54 50)"/>
</clipPath>
</defs>
</svg>
