<svg width="26" height="26" viewBox="0 0 26 26" fill="none" xmlns="http://www.w3.org/2000/svg">
<path d="M9.39453 15.524C9.39453 16.9215 10.467 18.0482 11.7995 18.0482H14.5187C15.6779 18.0482 16.6204 17.0624 16.6204 15.849C16.6204 14.5274 16.0462 14.0615 15.1904 13.7582L10.8245 12.2415C9.9687 11.9382 9.39453 11.4724 9.39453 10.1507C9.39453 8.93737 10.337 7.95154 11.4962 7.95154H14.2154C15.5479 7.95154 16.6204 9.0782 16.6204 10.4757" stroke="#6E8FA2" stroke-width="1.625" stroke-linecap="round" stroke-linejoin="round"/>
<path d="M13 6.5V19.5" stroke="#6E8FA2" stroke-width="1.625" stroke-linecap="round" stroke-linejoin="round"/>
<path d="M16.25 23.8333H9.75C4.33333 23.8333 2.16667 21.6666 2.16667 16.25V9.74996C2.16667 4.33329 4.33333 2.16663 9.75 2.16663H16.25C21.6667 2.16663 23.8333 4.33329 23.8333 9.74996V16.25C23.8333 21.6666 21.6667 23.8333 16.25 23.8333Z" stroke="#6E8FA2" stroke-width="1.625" stroke-linecap="round" stroke-linejoin="round"/>
</svg>
