<svg width="45" height="45" viewBox="0 0 45 45" fill="none" xmlns="http://www.w3.org/2000/svg">
<circle cx="22.5" cy="22.5" r="22.5" fill="white" fill-opacity="0.04"/>
<path d="M29.418 16.6719H14.582C13.7079 16.6719 13 17.3842 13 18.2539V27.7461C13 28.621 13.7131 29.3281 14.582 29.3281H29.418C30.2847 29.3281 31 28.6239 31 27.7461V18.2539C31 17.3858 30.2949 16.6719 29.418 16.6719ZM29.1964 17.7266C28.8732 18.0481 23.3107 23.5812 23.1187 23.7723C22.8198 24.0711 22.4226 24.2356 22 24.2356C21.5774 24.2356 21.1802 24.0711 20.8803 23.7713C20.7512 23.6428 15.2501 18.1707 14.8036 17.7266H29.1964ZM14.0547 27.5314V18.4692L18.6123 23.0028L14.0547 27.5314ZM14.8043 28.2734L19.36 23.7466L20.1356 24.518C20.6336 25.0161 21.2957 25.2903 22 25.2903C22.7043 25.2903 23.3664 25.0161 23.8635 24.519L24.64 23.7466L29.1957 28.2734H14.8043ZM29.9453 27.5314L25.3877 23.0028L29.9453 18.4692V27.5314Z" fill="white"/>
</svg>
