<svg width="26" height="26" viewBox="0 0 26 26" fill="none" xmlns="http://www.w3.org/2000/svg">
<path d="M16.8782 12.9999C16.8782 15.1449 15.1449 16.8782 12.9999 16.8782C10.8549 16.8782 9.12158 15.1449 9.12158 12.9999C9.12158 10.8549 10.8549 9.12158 12.9999 9.12158C15.1449 9.12158 16.8782 10.8549 16.8782 12.9999Z" stroke="#785AEF" stroke-width="1.5" stroke-linecap="round" stroke-linejoin="round"/>
<path d="M13.0001 21.9592C16.8242 21.9592 20.3884 19.7059 22.8692 15.8059C23.8442 14.2784 23.8442 11.7109 22.8692 10.1834C20.3884 6.28336 16.8242 4.03003 13.0001 4.03003C9.17591 4.03003 5.61174 6.28336 3.13091 10.1834C2.15591 11.7109 2.15591 14.2784 3.13091 15.8059C5.61174 19.7059 9.17591 21.9592 13.0001 21.9592Z" stroke="#785AEF" stroke-width="1.5" stroke-linecap="round" stroke-linejoin="round"/>
</svg>
