<svg width="24" height="24" viewBox="0 0 24 24" fill="none" xmlns="http://www.w3.org/2000/svg">
<path d="M1.72797 15.4061C1.58515 15.5445 1.50319 15.734 1.50009 15.9329C1.497 16.1318 1.57303 16.3238 1.71147 16.4666L4.59597 19.4396C4.6655 19.5122 4.74902 19.5701 4.84151 19.6096C4.93399 19.6491 5.03352 19.6695 5.13409 19.6695C5.23467 19.6695 5.3342 19.6491 5.42668 19.6096C5.51917 19.5701 5.60269 19.5122 5.67222 19.4396L8.55747 16.4666C8.62925 16.3966 8.68627 16.3129 8.72517 16.2205C8.76406 16.1281 8.78403 16.0289 8.78391 15.9286C8.78378 15.8284 8.76356 15.7292 8.72443 15.6369C8.6853 15.5446 8.62807 15.461 8.55611 15.3912C8.48415 15.3214 8.39893 15.2668 8.30548 15.2305C8.21203 15.1942 8.11225 15.177 8.01204 15.1799C7.91184 15.1828 7.81323 15.2058 7.72205 15.2475C7.63088 15.2892 7.54899 15.3487 7.48122 15.4226L5.88372 17.0681V5.08008C5.88372 4.88117 5.8047 4.6904 5.66405 4.54975C5.5234 4.4091 5.33263 4.33008 5.13372 4.33008C4.93481 4.33008 4.74404 4.4091 4.60339 4.54975C4.46274 4.6904 4.38372 4.88117 4.38372 5.08008V17.0673L2.78847 15.4226C2.65002 15.2798 2.46052 15.1978 2.26164 15.1947C2.06275 15.1916 1.87079 15.2676 1.72797 15.4061ZM20.16 9.69258C20.16 9.49367 20.081 9.3029 19.9403 9.16225C19.7996 9.0216 19.6089 8.94258 19.41 8.94258H11.271C11.0721 8.94258 10.8813 9.0216 10.7406 9.16225C10.6 9.3029 10.521 9.49367 10.521 9.69258C10.521 9.89149 10.6 10.0823 10.7406 10.2229C10.8813 10.3636 11.0721 10.4426 11.271 10.4426H19.41C19.6089 10.4426 19.7996 10.3636 19.9403 10.2229C20.081 10.0823 20.16 9.89149 20.16 9.69258ZM17.82 14.3051C17.82 14.1062 17.741 13.9154 17.6003 13.7747C17.4596 13.6341 17.2689 13.5551 17.07 13.5551H11.271C11.0721 13.5551 10.8813 13.6341 10.7406 13.7747C10.6 13.9154 10.521 14.1062 10.521 14.3051C10.521 14.504 10.6 14.6948 10.7406 14.8354C10.8813 14.9761 11.0721 15.0551 11.271 15.0551H17.07C17.2689 15.0551 17.4596 14.9761 17.6003 14.8354C17.741 14.6948 17.82 14.504 17.82 14.3051ZM11.271 18.1706C11.0721 18.1706 10.8813 18.2496 10.7406 18.3902C10.6 18.5309 10.521 18.7217 10.521 18.9206C10.521 19.1195 10.6 19.3103 10.7406 19.4509C10.8813 19.5916 11.0721 19.6706 11.271 19.6706H14.73C14.9289 19.6706 15.1196 19.5916 15.2603 19.4509C15.401 19.3103 15.48 19.1195 15.48 18.9206C15.48 18.7217 15.401 18.5309 15.2603 18.3902C15.1196 18.2496 14.9289 18.1706 14.73 18.1706H11.271ZM21.75 4.33008H11.271C11.0721 4.33008 10.8813 4.4091 10.7406 4.54975C10.6 4.6904 10.521 4.88117 10.521 5.08008C10.521 5.27899 10.6 5.46976 10.7406 5.61041C10.8813 5.75106 11.0721 5.83008 11.271 5.83008H21.75C21.9489 5.83008 22.1396 5.75106 22.2803 5.61041C22.421 5.46976 22.5 5.27899 22.5 5.08008C22.5 4.88117 22.421 4.6904 22.2803 4.54975C22.1396 4.4091 21.9489 4.33008 21.75 4.33008Z" fill="#6E8FA2"/>
</svg>
