<svg width="80" height="80" viewBox="0 0 80 80" fill="none" xmlns="http://www.w3.org/2000/svg">
<rect width="80" height="80" rx="40" fill="#785AEF" fill-opacity="0.1"/>
<path d="M42.4508 27.9725L44.9442 32.9592C45.2842 33.6533 46.1908 34.3192 46.9558 34.4467L51.475 35.1975C54.365 35.6792 55.045 37.7758 52.9625 39.8442L49.4492 43.3575C48.8542 43.9525 48.5283 45.1 48.7125 45.9217L49.7183 50.2708C50.5117 53.7133 48.6842 55.045 45.6383 53.2458L41.4025 50.7383C40.6375 50.285 39.3767 50.285 38.5975 50.7383L34.3617 53.2458C31.33 55.045 29.4883 53.6992 30.2817 50.2708L31.2875 45.9217C31.4717 45.1 31.1458 43.9525 30.5508 43.3575L27.0375 39.8442C24.9692 37.7758 25.635 35.6792 28.525 35.1975L33.0442 34.4467C33.795 34.3192 34.7017 33.6533 35.0417 32.9592L37.535 27.9725C38.895 25.2667 41.105 25.2667 42.4508 27.9725Z" stroke="#785AEF" stroke-width="2.5" stroke-linecap="round" stroke-linejoin="round"/>
</svg>
