<svg width="45" height="45" viewBox="0 0 45 45" fill="none" xmlns="http://www.w3.org/2000/svg">
<circle cx="22.5" cy="22.5" r="22.5" fill="white" fill-opacity="0.04"/>
<path d="M25.1526 15.2002H18.8478C17.6155 15.2011 16.4339 15.6911 15.5625 16.5624C14.6911 17.4338 14.2011 18.6153 14.2002 19.8476V26.1521C14.2009 27.3845 14.6908 28.5662 15.5622 29.4377C16.4336 30.3092 17.6153 30.7993 18.8478 30.8002H25.1526C26.385 30.7991 27.5666 30.309 28.438 29.4375C29.3093 28.5661 29.7993 27.3844 29.8002 26.1521V19.8476C29.7996 18.6152 29.3098 17.4334 28.4383 16.562C27.5669 15.6906 26.385 15.2008 25.1526 15.2002ZM28.2316 26.1521C28.2314 26.9686 27.907 27.7516 27.3296 28.329C26.7522 28.9063 25.9691 29.2308 25.1526 29.231H18.8478C18.4435 29.231 18.0431 29.1513 17.6696 28.9966C17.2961 28.8419 16.9567 28.6151 16.6708 28.3292C16.385 28.0432 16.1583 27.7038 16.0036 27.3303C15.8489 26.9567 15.7694 26.5564 15.7695 26.1521V19.8476C15.7694 19.4433 15.849 19.043 16.0036 18.6695C16.1583 18.296 16.385 17.9566 16.6709 17.6708C16.9568 17.3849 17.2961 17.1582 17.6697 17.0035C18.0432 16.8489 18.4435 16.7693 18.8478 16.7694H25.1526C25.969 16.7696 26.7518 17.094 27.3291 17.6712C27.9063 18.2484 28.2307 19.0313 28.2309 19.8476L28.2316 26.1521Z" fill="white"/>
<path d="M22.0825 18.5989C19.7198 18.5989 17.7998 20.5277 17.7998 22.8995C17.7998 25.2713 19.7206 27.2001 22.0825 27.2001C24.4445 27.2001 26.3653 25.2713 26.3653 22.8995C26.3653 20.5277 24.4453 18.5989 22.0825 18.5989ZM22.0825 25.5269C21.3886 25.527 20.7231 25.2503 20.2323 24.7576C19.7415 24.2649 19.4658 23.5967 19.4657 22.8999C19.4656 22.203 19.7412 21.5347 20.2318 21.0419C20.7224 20.5491 21.3878 20.2722 22.0818 20.2721C22.7757 20.272 23.4413 20.5487 23.932 21.0414C24.4228 21.534 24.6985 22.2023 24.6986 22.8991C24.6987 23.5959 24.4232 24.2643 23.9325 24.7571C23.4419 25.2499 22.7765 25.5268 22.0825 25.5269ZM26.3743 17.6001C26.5772 17.6002 26.7755 17.6608 26.9442 17.7741C27.1128 17.8874 27.2442 18.0483 27.3218 18.2366C27.3994 18.4249 27.4197 18.632 27.38 18.8319C27.3404 19.0317 27.2427 19.2153 27.0992 19.3593C26.9557 19.5034 26.7729 19.6016 26.5739 19.6413C26.3749 19.6811 26.1687 19.6608 25.9812 19.5829C25.7937 19.505 25.6334 19.373 25.5206 19.2037C25.4077 19.0343 25.3474 18.8352 25.3473 18.6314C25.3473 18.0628 25.7313 17.6001 26.3743 17.6001Z" fill="white"/>
</svg>
