<svg width="26" height="26" viewBox="0 0 26 26" fill="none" xmlns="http://www.w3.org/2000/svg">
<path d="M18.4167 22.75H7.58333C3.25 22.75 2.16667 21.6667 2.16667 17.3333V8.66667C2.16667 4.33333 3.25 3.25 7.58333 3.25H18.4167C22.75 3.25 23.8333 4.33333 23.8333 8.66667V17.3333C23.8333 21.6667 22.75 22.75 18.4167 22.75Z" stroke="white" stroke-width="1.625" stroke-linecap="round" stroke-linejoin="round"/>
<path d="M15.1667 8.66663H20.5833" stroke="white" stroke-width="1.625" stroke-linecap="round" stroke-linejoin="round"/>
<path d="M16.25 13H20.5833" stroke="white" stroke-width="1.625" stroke-linecap="round" stroke-linejoin="round"/>
<path d="M18.4167 17.3334H20.5833" stroke="white" stroke-width="1.625" stroke-linecap="round" stroke-linejoin="round"/>
<path d="M9.20833 12.2309C10.2913 12.2309 11.1692 11.353 11.1692 10.27C11.1692 9.1871 10.2913 8.3092 9.20833 8.3092C8.1254 8.3092 7.2475 9.1871 7.2475 10.27C7.2475 11.353 8.1254 12.2309 9.20833 12.2309Z" stroke="white" stroke-width="1.625" stroke-linecap="round" stroke-linejoin="round"/>
<path d="M13 17.6908C12.8483 16.1199 11.6025 14.8849 10.0317 14.7441C9.49 14.6899 8.9375 14.6899 8.385 14.7441C6.81417 14.8958 5.56833 16.1199 5.41667 17.6908" stroke="white" stroke-width="1.625" stroke-linecap="round" stroke-linejoin="round"/>
</svg>
