<svg width="56" height="56" viewBox="0 0 56 56" fill="none" xmlns="http://www.w3.org/2000/svg">
<path d="M41 0.5C49.0081 0.5 55.5 6.99187 55.5 15V41C55.5 49.0081 49.0081 55.5 41 55.5H15C6.99187 55.5 0.5 49.0081 0.5 41V15L0.504883 14.626C0.703272 6.79071 7.11692 0.5 15 0.5H41Z" fill="url(#paint0_linear_18019_17977)"/>
<path d="M41 0.5C49.0081 0.5 55.5 6.99187 55.5 15V41C55.5 49.0081 49.0081 55.5 41 55.5H15C6.99187 55.5 0.5 49.0081 0.5 41V15L0.504883 14.626C0.703272 6.79071 7.11692 0.5 15 0.5H41Z" stroke="url(#paint1_linear_18019_17977)"/>
<path d="M40 23.2V22.6C40 18.9549 37.0451 16 33.4 16H32.8M40 32.8V33.4C40 37.0451 37.0451 40 33.4 40H32.8M16 32.8V33.4C16 37.0451 18.9549 40 22.6 40H23.2M16 23.2V22.6C16 18.9549 18.9549 16 22.6 16H23.2M27.9999 23.2V28.0001C27.9999 28.6628 27.4627 29.2 26.8 29.2M23.2 23.2V25M32.8 23.2V25M32.8009 31.6C31.7062 33.0573 29.9634 34 28.0004 34C26.0375 34 24.2946 33.0573 23.2 31.6" stroke="white" stroke-width="1.8" stroke-linecap="round" stroke-linejoin="round"/>
<defs>
<linearGradient id="paint0_linear_18019_17977" x1="28" y1="1" x2="28" y2="57.6129" gradientUnits="userSpaceOnUse">
<stop stop-color="#0E4041"/>
<stop offset="1" stop-color="#001018"/>
</linearGradient>
<linearGradient id="paint1_linear_18019_17977" x1="28" y1="1" x2="28" y2="57.6129" gradientUnits="userSpaceOnUse">
<stop stop-color="#00FFDB"/>
<stop offset="1" stop-color="#00FFDB" stop-opacity="0.15"/>
</linearGradient>
</defs>
</svg>
