<svg width="45" height="45" viewBox="0 0 45 45" fill="none" xmlns="http://www.w3.org/2000/svg">
<circle cx="22.5" cy="22.5" r="22.5" fill="white" fill-opacity="0.04"/>
<path d="M29.2 30.2V24.926C29.2 22.334 28.642 20.354 25.618 20.354C24.16 20.354 23.188 21.146 22.792 21.902H22.756V20.588H19.894V30.2H22.882V25.43C22.882 24.17 23.116 22.964 24.664 22.964C26.194 22.964 26.212 24.386 26.212 25.502V30.182H29.2V30.2Z" fill="white"/>
<path d="M15.0337 20.5879H18.0217V30.1999H15.0337V20.5879Z" fill="white"/>
<path d="M16.5278 15.7998C15.5738 15.7998 14.7998 16.5738 14.7998 17.5278C14.7998 18.4818 15.5738 19.2738 16.5278 19.2738C17.4818 19.2738 18.2558 18.4818 18.2558 17.5278C18.2558 16.5738 17.4818 15.7998 16.5278 15.7998Z" fill="white"/>
</svg>
