<svg width="150" height="150" viewBox="0 0 150 150" fill="none" xmlns="http://www.w3.org/2000/svg">
<rect width="150" height="150" rx="75" fill="#F7F8FA"/>
<mask id="mask0_1925_426" style="mask-type:luminance" maskUnits="userSpaceOnUse" x="54" y="50" width="50" height="50">
<path d="M54 50H104V100H54V50Z" fill="white"/>
</mask>
<g mask="url(#mask0_1925_426)">
<path d="M86.7148 73.0469C86.7148 81.6764 79.7192 88.6719 71.0898 88.6719C62.4604 88.6719 55.4648 81.6764 55.4648 73.0469C55.4648 64.4174 62.4604 57.4219 71.0898 57.4219C79.7192 57.4219 86.7148 64.4174 86.7148 73.0469Z" stroke="#785AEF" stroke-width="3" stroke-miterlimit="10" stroke-linecap="round" stroke-linejoin="round"/>
<path d="M86.7148 88.6719H55.4648V89.6484C55.4648 92.3451 57.651 94.5312 60.3477 94.5312H81.832C84.5287 94.5312 86.7148 92.3451 86.7148 89.6484V88.6719Z" stroke="#785AEF" stroke-width="3" stroke-miterlimit="10" stroke-linecap="round" stroke-linejoin="round"/>
<path d="M76.614 71.6658L69.7087 78.571" stroke="#785AEF" stroke-width="3" stroke-miterlimit="10" stroke-linecap="round" stroke-linejoin="round"/>
<path d="M65.5657 74.428L72.4709 67.5227" stroke="#785AEF" stroke-width="3" stroke-miterlimit="10" stroke-linecap="round" stroke-linejoin="round"/>
<path d="M97.6523 68.1641H91.793V91.6016C91.793 93.2195 93.1047 94.5312 94.7227 94.5312C96.3406 94.5312 97.6523 93.2195 97.6523 91.6016V68.1641Z" stroke="#785AEF" stroke-width="3" stroke-miterlimit="10" stroke-linecap="round" stroke-linejoin="round"/>
<path d="M102.535 57.7771C97.3269 54.6993 92.1185 54.6993 86.9102 57.7771L91.793 68.1641H97.6523L102.535 57.7771Z" stroke="#785AEF" stroke-width="3" stroke-miterlimit="10" stroke-linecap="round" stroke-linejoin="round"/>
<path d="M91.793 74.0234H97.6523" stroke="#785AEF" stroke-width="3" stroke-miterlimit="10" stroke-linecap="round" stroke-linejoin="round"/>
</g>
</svg>
