<svg width="26" height="26" viewBox="0 0 26 26" fill="none" xmlns="http://www.w3.org/2000/svg">
<mask id="path-1-outside-1_18026_9052" maskUnits="userSpaceOnUse" x="1" y="1.50012" width="23" height="23" fill="black">
<rect fill="white" x="1" y="1.50012" width="23" height="23"/>
<path d="M22.9115 20.896L22.716 20.8006C22.5576 20.7183 22.4117 20.614 22.2826 20.4908L19.4643 17.6666C19.8705 17.2603 20.0987 16.7093 20.0987 16.1347C20.0987 15.5602 19.8705 15.0092 19.4643 14.6029C19.3637 14.5023 19.2443 14.4224 19.1128 14.3679C18.9813 14.3135 18.8404 14.2854 18.6981 14.2854C18.5558 14.2854 18.4149 14.3135 18.2835 14.3679C18.152 14.4224 18.0326 14.5023 17.932 14.6029L17.5685 14.9664L16.1331 13.4383L23.1103 6.88415C23.2041 6.796 23.2634 6.67733 23.2777 6.5494L23.6622 3.1044C23.6708 3.02406 23.6612 2.94284 23.6343 2.86667C23.6074 2.7905 23.5637 2.72132 23.5066 2.66419C23.4495 2.60706 23.3803 2.56344 23.3041 2.53651C23.228 2.50958 23.1467 2.50004 23.0664 2.50857L19.6214 2.89315C19.4936 2.90767 19.375 2.96696 19.2867 3.06053L12.8322 9.92507L6.38037 3.05511C6.29204 2.96155 6.17346 2.90225 6.04562 2.88773L2.60062 2.50315C2.52028 2.49462 2.43905 2.50417 2.36288 2.53109C2.28671 2.55802 2.21753 2.60165 2.16041 2.65877C2.10328 2.7159 2.05966 2.78508 2.03273 2.86125C2.0058 2.93742 1.99625 3.01865 2.00478 3.09898L2.38937 6.54398C2.40361 6.67191 2.46295 6.79058 2.55674 6.87873L9.53558 13.4329L8.09908 14.9626L7.73562 14.5991C7.63501 14.4985 7.51557 14.4186 7.3841 14.3642C7.25264 14.3097 7.11173 14.2817 6.96943 14.2817C6.82713 14.2817 6.68622 14.3097 6.55475 14.3642C6.42329 14.4186 6.30384 14.4985 6.20324 14.5991C5.79706 15.0054 5.56887 15.5564 5.56887 16.1309C5.56887 16.7055 5.79706 17.2565 6.20324 17.6628L3.38766 20.4832C3.26157 20.605 3.1192 20.7088 2.96462 20.7914L2.74795 20.8965C2.55525 20.9916 2.38826 21.1316 2.26108 21.3048C2.1339 21.478 2.05027 21.6792 2.01724 21.8916C1.98316 22.1033 1.99976 22.3202 2.06566 22.5243C2.13157 22.7284 2.24492 22.914 2.39641 23.0659L3.10058 23.7701C3.35459 24.0233 3.69846 24.1659 4.05716 24.1666C4.12975 24.1666 4.20222 24.1606 4.27383 24.1487C4.48674 24.1151 4.68841 24.0307 4.86173 23.9025C5.03505 23.7744 5.1749 23.6063 5.26941 23.4126L5.36474 23.2165C5.44716 23.0582 5.55146 22.9123 5.67458 22.7831L8.49883 19.9649C8.70002 20.1661 8.93888 20.3257 9.20176 20.4346C9.46464 20.5435 9.74639 20.5995 10.0309 20.5995C10.3155 20.5995 10.5972 20.5435 10.8601 20.4346C11.123 20.3257 11.3618 20.1661 11.563 19.9649C11.7661 19.7617 11.8802 19.4862 11.8802 19.1989C11.8802 18.9117 11.7661 18.6362 11.563 18.433L11.1996 18.0696L12.8322 16.5361L14.4653 18.0696L14.1018 18.433C13.8987 18.6362 13.7846 18.9117 13.7846 19.1989C13.7846 19.4862 13.8987 19.7617 14.1018 19.9649C14.303 20.1661 14.5419 20.3257 14.8048 20.4346C15.0676 20.5435 15.3494 20.5995 15.6339 20.5995C15.9185 20.5995 16.2002 20.5435 16.4631 20.4346C16.726 20.3257 16.9648 20.1661 17.166 19.9649L19.9827 22.7777C20.1047 22.9039 20.2086 23.0465 20.2915 23.2013L20.3965 23.418C20.4915 23.6105 20.6314 23.7775 20.8043 23.9046C20.9773 24.0318 21.1784 24.1155 21.3905 24.1487C21.4621 24.1606 21.5346 24.1666 21.6072 24.1666C21.9664 24.1663 22.311 24.0237 22.5654 23.7701L23.2695 23.0659C23.421 22.914 23.5344 22.7284 23.6003 22.5243C23.6662 22.3202 23.6828 22.1033 23.6487 21.8916C23.615 21.6785 23.5304 21.4768 23.402 21.3035C23.2737 21.1301 23.1054 20.9904 22.9115 20.896ZM19.9372 3.94182L22.5101 3.65473L22.223 6.22819L15.3915 12.6486L13.5764 10.7164L19.9372 3.94182ZM4.90324 22.0243C4.70196 22.2334 4.53209 22.4706 4.39895 22.7284L4.29874 22.9348C4.27954 22.9731 4.25151 23.0063 4.21697 23.0317C4.18244 23.0571 4.14237 23.0739 4.10007 23.0808C4.05777 23.0876 4.01444 23.0844 3.97365 23.0712C3.93285 23.0581 3.89576 23.0355 3.86541 23.0052L3.16124 22.3011C3.13104 22.2707 3.10848 22.2336 3.09539 22.1929C3.0823 22.1521 3.07907 22.1088 3.08595 22.0665C3.0919 22.025 3.10782 21.9855 3.13234 21.9515C3.15687 21.9174 3.18927 21.8898 3.22678 21.871L3.45374 21.7626C3.7077 21.6289 3.94119 21.4594 4.14708 21.2594L6.96374 18.4357L7.7302 19.2022L4.90324 22.0243ZM9.26474 19.1989L6.96645 16.9006C6.76336 16.6975 6.64927 16.422 6.64927 16.1347C6.64927 15.8475 6.76336 15.572 6.96645 15.3688L10.7966 19.1989C10.5902 19.3959 10.3159 19.5058 10.0307 19.5058C9.7454 19.5058 9.4711 19.3959 9.26474 19.1989ZM10.4331 17.3031L8.86228 15.7323L10.3248 14.1782L12.043 15.7924L10.4331 17.3031ZM3.44128 6.22873L3.1542 3.65528L5.72712 3.94236L16.802 15.7328L15.2312 17.3036L3.44128 6.22873ZM14.8705 19.1989L18.7011 15.3688C18.9042 15.572 19.0183 15.8475 19.0183 16.1347C19.0183 16.422 18.9042 16.6975 18.7011 16.9006L16.4028 19.1989C16.1963 19.3968 15.9213 19.5073 15.6353 19.5073C15.3492 19.5073 15.0743 19.3968 14.8677 19.1989H14.8705ZM22.508 22.3L21.8038 23.0042C21.7734 23.0343 21.7363 23.0569 21.6956 23.07C21.6548 23.0831 21.6115 23.0863 21.5692 23.0794C21.5277 23.0735 21.4882 23.0576 21.4542 23.033C21.4201 23.0085 21.3925 22.9761 21.3737 22.9386L21.2654 22.7116C21.1315 22.4576 20.962 22.224 20.7622 22.0178L17.939 19.2011L18.7055 18.4346L21.5302 21.2654C21.7397 21.4661 21.9768 21.6358 22.2344 21.7691L22.4408 21.8694C22.4794 21.8881 22.5128 21.9159 22.5382 21.9505C22.5636 21.985 22.5801 22.0252 22.5865 22.0676C22.592 22.1102 22.5873 22.1535 22.5728 22.1939C22.5583 22.2343 22.5344 22.2706 22.5031 22.3H22.508Z"/>
</mask>
<path d="M22.9115 20.896L22.716 20.8006C22.5576 20.7183 22.4117 20.614 22.2826 20.4908L19.4643 17.6666C19.8705 17.2603 20.0987 16.7093 20.0987 16.1347C20.0987 15.5602 19.8705 15.0092 19.4643 14.6029C19.3637 14.5023 19.2443 14.4224 19.1128 14.3679C18.9813 14.3135 18.8404 14.2854 18.6981 14.2854C18.5558 14.2854 18.4149 14.3135 18.2835 14.3679C18.152 14.4224 18.0326 14.5023 17.932 14.6029L17.5685 14.9664L16.1331 13.4383L23.1103 6.88415C23.2041 6.796 23.2634 6.67733 23.2777 6.5494L23.6622 3.1044C23.6708 3.02406 23.6612 2.94284 23.6343 2.86667C23.6074 2.7905 23.5637 2.72132 23.5066 2.66419C23.4495 2.60706 23.3803 2.56344 23.3041 2.53651C23.228 2.50958 23.1467 2.50004 23.0664 2.50857L19.6214 2.89315C19.4936 2.90767 19.375 2.96696 19.2867 3.06053L12.8322 9.92507L6.38037 3.05511C6.29204 2.96155 6.17346 2.90225 6.04562 2.88773L2.60062 2.50315C2.52028 2.49462 2.43905 2.50417 2.36288 2.53109C2.28671 2.55802 2.21753 2.60165 2.16041 2.65877C2.10328 2.7159 2.05966 2.78508 2.03273 2.86125C2.0058 2.93742 1.99625 3.01865 2.00478 3.09898L2.38937 6.54398C2.40361 6.67191 2.46295 6.79058 2.55674 6.87873L9.53558 13.4329L8.09908 14.9626L7.73562 14.5991C7.63501 14.4985 7.51557 14.4186 7.3841 14.3642C7.25264 14.3097 7.11173 14.2817 6.96943 14.2817C6.82713 14.2817 6.68622 14.3097 6.55475 14.3642C6.42329 14.4186 6.30384 14.4985 6.20324 14.5991C5.79706 15.0054 5.56887 15.5564 5.56887 16.1309C5.56887 16.7055 5.79706 17.2565 6.20324 17.6628L3.38766 20.4832C3.26157 20.605 3.1192 20.7088 2.96462 20.7914L2.74795 20.8965C2.55525 20.9916 2.38826 21.1316 2.26108 21.3048C2.1339 21.478 2.05027 21.6792 2.01724 21.8916C1.98316 22.1033 1.99976 22.3202 2.06566 22.5243C2.13157 22.7284 2.24492 22.914 2.39641 23.0659L3.10058 23.7701C3.35459 24.0233 3.69846 24.1659 4.05716 24.1666C4.12975 24.1666 4.20222 24.1606 4.27383 24.1487C4.48674 24.1151 4.68841 24.0307 4.86173 23.9025C5.03505 23.7744 5.1749 23.6063 5.26941 23.4126L5.36474 23.2165C5.44716 23.0582 5.55146 22.9123 5.67458 22.7831L8.49883 19.9649C8.70002 20.1661 8.93888 20.3257 9.20176 20.4346C9.46464 20.5435 9.74639 20.5995 10.0309 20.5995C10.3155 20.5995 10.5972 20.5435 10.8601 20.4346C11.123 20.3257 11.3618 20.1661 11.563 19.9649C11.7661 19.7617 11.8802 19.4862 11.8802 19.1989C11.8802 18.9117 11.7661 18.6362 11.563 18.433L11.1996 18.0696L12.8322 16.5361L14.4653 18.0696L14.1018 18.433C13.8987 18.6362 13.7846 18.9117 13.7846 19.1989C13.7846 19.4862 13.8987 19.7617 14.1018 19.9649C14.303 20.1661 14.5419 20.3257 14.8048 20.4346C15.0676 20.5435 15.3494 20.5995 15.6339 20.5995C15.9185 20.5995 16.2002 20.5435 16.4631 20.4346C16.726 20.3257 16.9648 20.1661 17.166 19.9649L19.9827 22.7777C20.1047 22.9039 20.2086 23.0465 20.2915 23.2013L20.3965 23.418C20.4915 23.6105 20.6314 23.7775 20.8043 23.9046C20.9773 24.0318 21.1784 24.1155 21.3905 24.1487C21.4621 24.1606 21.5346 24.1666 21.6072 24.1666C21.9664 24.1663 22.311 24.0237 22.5654 23.7701L23.2695 23.0659C23.421 22.914 23.5344 22.7284 23.6003 22.5243C23.6662 22.3202 23.6828 22.1033 23.6487 21.8916C23.615 21.6785 23.5304 21.4768 23.402 21.3035C23.2737 21.1301 23.1054 20.9904 22.9115 20.896ZM19.9372 3.94182L22.5101 3.65473L22.223 6.22819L15.3915 12.6486L13.5764 10.7164L19.9372 3.94182ZM4.90324 22.0243C4.70196 22.2334 4.53209 22.4706 4.39895 22.7284L4.29874 22.9348C4.27954 22.9731 4.25151 23.0063 4.21697 23.0317C4.18244 23.0571 4.14237 23.0739 4.10007 23.0808C4.05777 23.0876 4.01444 23.0844 3.97365 23.0712C3.93285 23.0581 3.89576 23.0355 3.86541 23.0052L3.16124 22.3011C3.13104 22.2707 3.10848 22.2336 3.09539 22.1929C3.0823 22.1521 3.07907 22.1088 3.08595 22.0665C3.0919 22.025 3.10782 21.9855 3.13234 21.9515C3.15687 21.9174 3.18927 21.8898 3.22678 21.871L3.45374 21.7626C3.7077 21.6289 3.94119 21.4594 4.14708 21.2594L6.96374 18.4357L7.7302 19.2022L4.90324 22.0243ZM9.26474 19.1989L6.96645 16.9006C6.76336 16.6975 6.64927 16.422 6.64927 16.1347C6.64927 15.8475 6.76336 15.572 6.96645 15.3688L10.7966 19.1989C10.5902 19.3959 10.3159 19.5058 10.0307 19.5058C9.7454 19.5058 9.4711 19.3959 9.26474 19.1989ZM10.4331 17.3031L8.86228 15.7323L10.3248 14.1782L12.043 15.7924L10.4331 17.3031ZM3.44128 6.22873L3.1542 3.65528L5.72712 3.94236L16.802 15.7328L15.2312 17.3036L3.44128 6.22873ZM14.8705 19.1989L18.7011 15.3688C18.9042 15.572 19.0183 15.8475 19.0183 16.1347C19.0183 16.422 18.9042 16.6975 18.7011 16.9006L16.4028 19.1989C16.1963 19.3968 15.9213 19.5073 15.6353 19.5073C15.3492 19.5073 15.0743 19.3968 14.8677 19.1989H14.8705ZM22.508 22.3L21.8038 23.0042C21.7734 23.0343 21.7363 23.0569 21.6956 23.07C21.6548 23.0831 21.6115 23.0863 21.5692 23.0794C21.5277 23.0735 21.4882 23.0576 21.4542 23.033C21.4201 23.0085 21.3925 22.9761 21.3737 22.9386L21.2654 22.7116C21.1315 22.4576 20.962 22.224 20.7622 22.0178L17.939 19.2011L18.7055 18.4346L21.5302 21.2654C21.7397 21.4661 21.9768 21.6358 22.2344 21.7691L22.4408 21.8694C22.4794 21.8881 22.5128 21.9159 22.5382 21.9505C22.5636 21.985 22.5801 22.0252 22.5865 22.0676C22.592 22.1102 22.5873 22.1535 22.5728 22.1939C22.5583 22.2343 22.5344 22.2706 22.5031 22.3H22.508Z" fill="#6E8FA2"/>
<path d="M22.9115 20.896L22.716 20.8006C22.5576 20.7183 22.4117 20.614 22.2826 20.4908L19.4643 17.6666C19.8705 17.2603 20.0987 16.7093 20.0987 16.1347C20.0987 15.5602 19.8705 15.0092 19.4643 14.6029C19.3637 14.5023 19.2443 14.4224 19.1128 14.3679C18.9813 14.3135 18.8404 14.2854 18.6981 14.2854C18.5558 14.2854 18.4149 14.3135 18.2835 14.3679C18.152 14.4224 18.0326 14.5023 17.932 14.6029L17.5685 14.9664L16.1331 13.4383L23.1103 6.88415C23.2041 6.796 23.2634 6.67733 23.2777 6.5494L23.6622 3.1044C23.6708 3.02406 23.6612 2.94284 23.6343 2.86667C23.6074 2.7905 23.5637 2.72132 23.5066 2.66419C23.4495 2.60706 23.3803 2.56344 23.3041 2.53651C23.228 2.50958 23.1467 2.50004 23.0664 2.50857L19.6214 2.89315C19.4936 2.90767 19.375 2.96696 19.2867 3.06053L12.8322 9.92507L6.38037 3.05511C6.29204 2.96155 6.17346 2.90225 6.04562 2.88773L2.60062 2.50315C2.52028 2.49462 2.43905 2.50417 2.36288 2.53109C2.28671 2.55802 2.21753 2.60165 2.16041 2.65877C2.10328 2.7159 2.05966 2.78508 2.03273 2.86125C2.0058 2.93742 1.99625 3.01865 2.00478 3.09898L2.38937 6.54398C2.40361 6.67191 2.46295 6.79058 2.55674 6.87873L9.53558 13.4329L8.09908 14.9626L7.73562 14.5991C7.63501 14.4985 7.51557 14.4186 7.3841 14.3642C7.25264 14.3097 7.11173 14.2817 6.96943 14.2817C6.82713 14.2817 6.68622 14.3097 6.55475 14.3642C6.42329 14.4186 6.30384 14.4985 6.20324 14.5991C5.79706 15.0054 5.56887 15.5564 5.56887 16.1309C5.56887 16.7055 5.79706 17.2565 6.20324 17.6628L3.38766 20.4832C3.26157 20.605 3.1192 20.7088 2.96462 20.7914L2.74795 20.8965C2.55525 20.9916 2.38826 21.1316 2.26108 21.3048C2.1339 21.478 2.05027 21.6792 2.01724 21.8916C1.98316 22.1033 1.99976 22.3202 2.06566 22.5243C2.13157 22.7284 2.24492 22.914 2.39641 23.0659L3.10058 23.7701C3.35459 24.0233 3.69846 24.1659 4.05716 24.1666C4.12975 24.1666 4.20222 24.1606 4.27383 24.1487C4.48674 24.1151 4.68841 24.0307 4.86173 23.9025C5.03505 23.7744 5.1749 23.6063 5.26941 23.4126L5.36474 23.2165C5.44716 23.0582 5.55146 22.9123 5.67458 22.7831L8.49883 19.9649C8.70002 20.1661 8.93888 20.3257 9.20176 20.4346C9.46464 20.5435 9.74639 20.5995 10.0309 20.5995C10.3155 20.5995 10.5972 20.5435 10.8601 20.4346C11.123 20.3257 11.3618 20.1661 11.563 19.9649C11.7661 19.7617 11.8802 19.4862 11.8802 19.1989C11.8802 18.9117 11.7661 18.6362 11.563 18.433L11.1996 18.0696L12.8322 16.5361L14.4653 18.0696L14.1018 18.433C13.8987 18.6362 13.7846 18.9117 13.7846 19.1989C13.7846 19.4862 13.8987 19.7617 14.1018 19.9649C14.303 20.1661 14.5419 20.3257 14.8048 20.4346C15.0676 20.5435 15.3494 20.5995 15.6339 20.5995C15.9185 20.5995 16.2002 20.5435 16.4631 20.4346C16.726 20.3257 16.9648 20.1661 17.166 19.9649L19.9827 22.7777C20.1047 22.9039 20.2086 23.0465 20.2915 23.2013L20.3965 23.418C20.4915 23.6105 20.6314 23.7775 20.8043 23.9046C20.9773 24.0318 21.1784 24.1155 21.3905 24.1487C21.4621 24.1606 21.5346 24.1666 21.6072 24.1666C21.9664 24.1663 22.311 24.0237 22.5654 23.7701L23.2695 23.0659C23.421 22.914 23.5344 22.7284 23.6003 22.5243C23.6662 22.3202 23.6828 22.1033 23.6487 21.8916C23.615 21.6785 23.5304 21.4768 23.402 21.3035C23.2737 21.1301 23.1054 20.9904 22.9115 20.896ZM19.9372 3.94182L22.5101 3.65473L22.223 6.22819L15.3915 12.6486L13.5764 10.7164L19.9372 3.94182ZM4.90324 22.0243C4.70196 22.2334 4.53209 22.4706 4.39895 22.7284L4.29874 22.9348C4.27954 22.9731 4.25151 23.0063 4.21697 23.0317C4.18244 23.0571 4.14237 23.0739 4.10007 23.0808C4.05777 23.0876 4.01444 23.0844 3.97365 23.0712C3.93285 23.0581 3.89576 23.0355 3.86541 23.0052L3.16124 22.3011C3.13104 22.2707 3.10848 22.2336 3.09539 22.1929C3.0823 22.1521 3.07907 22.1088 3.08595 22.0665C3.0919 22.025 3.10782 21.9855 3.13234 21.9515C3.15687 21.9174 3.18927 21.8898 3.22678 21.871L3.45374 21.7626C3.7077 21.6289 3.94119 21.4594 4.14708 21.2594L6.96374 18.4357L7.7302 19.2022L4.90324 22.0243ZM9.26474 19.1989L6.96645 16.9006C6.76336 16.6975 6.64927 16.422 6.64927 16.1347C6.64927 15.8475 6.76336 15.572 6.96645 15.3688L10.7966 19.1989C10.5902 19.3959 10.3159 19.5058 10.0307 19.5058C9.7454 19.5058 9.4711 19.3959 9.26474 19.1989ZM10.4331 17.3031L8.86228 15.7323L10.3248 14.1782L12.043 15.7924L10.4331 17.3031ZM3.44128 6.22873L3.1542 3.65528L5.72712 3.94236L16.802 15.7328L15.2312 17.3036L3.44128 6.22873ZM14.8705 19.1989L18.7011 15.3688C18.9042 15.572 19.0183 15.8475 19.0183 16.1347C19.0183 16.422 18.9042 16.6975 18.7011 16.9006L16.4028 19.1989C16.1963 19.3968 15.9213 19.5073 15.6353 19.5073C15.3492 19.5073 15.0743 19.3968 14.8677 19.1989H14.8705ZM22.508 22.3L21.8038 23.0042C21.7734 23.0343 21.7363 23.0569 21.6956 23.07C21.6548 23.0831 21.6115 23.0863 21.5692 23.0794C21.5277 23.0735 21.4882 23.0576 21.4542 23.033C21.4201 23.0085 21.3925 22.9761 21.3737 22.9386L21.2654 22.7116C21.1315 22.4576 20.962 22.224 20.7622 22.0178L17.939 19.2011L18.7055 18.4346L21.5302 21.2654C21.7397 21.4661 21.9768 21.6358 22.2344 21.7691L22.4408 21.8694C22.4794 21.8881 22.5128 21.9159 22.5382 21.9505C22.5636 21.985 22.5801 22.0252 22.5865 22.0676C22.592 22.1102 22.5873 22.1535 22.5728 22.1939C22.5583 22.2343 22.5344 22.2706 22.5031 22.3H22.508Z" stroke="#6E8FA2" stroke-width="0.4" mask="url(#path-1-outside-1_18026_9052)"/>
</svg>
