<svg width="80" height="80" viewBox="0 0 80 80" fill="none" xmlns="http://www.w3.org/2000/svg">
<path d="M0 40C0 17.9086 17.9086 0 40 0C62.0914 0 80 17.9086 80 40C80 62.0914 62.0914 80 40 80C17.9086 80 0 62.0914 0 40Z" fill="#785AEF" fill-opacity="0.1"/>
<path d="M35.9767 38.3991C35.835 38.3849 35.665 38.3849 35.5092 38.3991C32.1375 38.2858 29.46 35.5233 29.46 32.1233C29.46 28.6524 32.265 25.8333 35.75 25.8333C39.2208 25.8333 42.04 28.6524 42.04 32.1233C42.0258 35.5233 39.3483 38.2858 35.9767 38.3991Z" stroke="#785AEF" stroke-width="2.5" stroke-linecap="round" stroke-linejoin="round"/>
<path d="M46.2475 28.6667C48.9958 28.6667 51.2058 30.8909 51.2058 33.6251C51.2058 36.3026 49.0808 38.4842 46.4317 38.5834C46.3183 38.5692 46.1908 38.5692 46.0633 38.5834" stroke="#785AEF" stroke-width="2.5" stroke-linecap="round" stroke-linejoin="round"/>
<path d="M28.8933 43.6267C25.465 45.9217 25.465 49.6617 28.8933 51.9426C32.7892 54.5492 39.1783 54.5492 43.0742 51.9426C46.5025 49.6476 46.5025 45.9076 43.0742 43.6267C39.1925 41.0342 32.8033 41.0342 28.8933 43.6267Z" stroke="#785AEF" stroke-width="2.5" stroke-linecap="round" stroke-linejoin="round"/>
<path d="M48.9817 51.3333C50.0017 51.1208 50.965 50.7099 51.7583 50.1008C53.9683 48.4433 53.9683 45.7091 51.7583 44.0516C50.9792 43.4566 50.03 43.0599 49.0242 42.8333" stroke="#785AEF" stroke-width="2.5" stroke-linecap="round" stroke-linejoin="round"/>
</svg>
