<svg width="80" height="80" viewBox="0 0 80 80" fill="none" xmlns="http://www.w3.org/2000/svg">
<rect width="80" height="80" rx="40" fill="white"/>
<path d="M54.1666 33.5258V42.0258C54.1666 44.1508 53.4582 45.9217 52.2116 47.1683C50.9791 48.4008 49.2083 49.1092 47.0833 49.1092V52.1267C47.0833 53.26 45.8224 53.94 44.8874 53.3167L38.5833 49.1092H35.5799C35.6933 48.6842 35.7499 48.245 35.7499 47.7917C35.7499 46.3467 35.1974 45.015 34.2908 44.0092C33.2708 42.8475 31.7549 42.125 30.0833 42.125C28.4966 42.125 27.0516 42.7767 26.0174 43.8392C25.8899 43.2725 25.8333 42.6633 25.8333 42.0258V33.5258C25.8333 29.2758 28.6666 26.4425 32.9166 26.4425H47.0833C51.3333 26.4425 54.1666 29.2758 54.1666 33.5258Z" stroke="#785AEF" stroke-width="2.5" stroke-miterlimit="10" stroke-linecap="round" stroke-linejoin="round"/>
<path d="M35.7501 47.7917C35.7501 48.245 35.6934 48.6842 35.5801 49.1092C35.4526 49.6758 35.2259 50.2283 34.9284 50.71C33.9509 52.3533 32.1517 53.4583 30.0834 53.4583C28.6242 53.4583 27.3067 52.9058 26.3151 51.9991C25.8901 51.6308 25.5217 51.1917 25.2384 50.71C24.7142 49.86 24.4167 48.8542 24.4167 47.7917C24.4167 46.2617 25.0259 44.8592 26.0176 43.8392C27.0518 42.7767 28.4967 42.125 30.0834 42.125C31.7551 42.125 33.2709 42.8475 34.2909 44.0092C35.1976 45.015 35.7501 46.3467 35.7501 47.7917Z" stroke="#785AEF" stroke-width="2.5" stroke-miterlimit="10" stroke-linecap="round" stroke-linejoin="round"/>
<path d="M31.599 49.265L28.5957 46.2759" stroke="#785AEF" stroke-width="2.5" stroke-miterlimit="10" stroke-linecap="round" stroke-linejoin="round"/>
<path d="M31.5707 46.3184L28.5674 49.3075" stroke="#785AEF" stroke-width="2.5" stroke-miterlimit="10" stroke-linecap="round" stroke-linejoin="round"/>
<path d="M35.0417 37.875H44.9584" stroke="#785AEF" stroke-width="2.5" stroke-miterlimit="10" stroke-linecap="round" stroke-linejoin="round"/>
</svg>
