<svg width="56" height="56" viewBox="0 0 56 56" fill="none" xmlns="http://www.w3.org/2000/svg">
<circle cx="27.8" cy="27.7998" r="27.4" fill="#469093" fill-opacity="0.1" stroke="url(#paint0_linear_1_6897)" stroke-width="0.8"/>
<path d="M27.8259 16.0049C31.9947 16.0054 35.3941 19.4043 35.3943 23.5869V25.9248C35.3943 26.3051 35.4782 26.7642 35.5945 27.1807C35.7103 27.5952 35.8764 28.0301 36.074 28.3555V28.3564L37.4861 30.7051C37.8999 31.4027 37.9781 32.2229 37.699 32.9727C37.4166 33.7186 36.8237 34.3013 36.0466 34.5645C34.7269 35.0044 33.3733 35.3464 32.0105 35.5654L31.9978 35.5674C31.8555 35.5933 31.7463 35.6126 31.6423 35.6221L31.6179 35.624L31.5945 35.6279C31.3896 35.6621 31.1817 35.6856 30.9539 35.7109L30.9382 35.7129C30.6815 35.7479 30.4095 35.7716 30.1189 35.7969L30.113 35.7979C29.3591 35.8708 28.5921 35.9072 27.825 35.9072C27.045 35.9072 26.2655 35.8699 25.4988 35.7969L25.4851 35.7959L25.0125 35.752C24.8566 35.7342 24.7021 35.7132 24.5476 35.6895L24.5349 35.6875C24.3468 35.6624 24.1624 35.6378 23.991 35.6133H23.99C23.914 35.6001 23.8409 35.5902 23.781 35.582C23.71 35.5723 23.6547 35.5642 23.6023 35.5547L23.5964 35.5537L23.0876 35.4619C21.9038 35.2391 20.741 34.9479 19.5906 34.5645L19.5867 34.5635L19.4343 34.5098C18.6882 34.2219 18.1393 33.6622 17.8904 32.9893L17.8894 32.9863C17.6299 32.2942 17.7132 31.4612 18.1638 30.6934L19.5759 28.3438L19.5798 28.3369C19.7685 28.0145 19.9303 27.5812 20.0447 27.166C20.1589 26.7512 20.2429 26.2921 20.2429 25.9121V23.5869C20.2431 19.4065 23.641 16.0169 27.8259 16.0049ZM27.7878 19.832C26.9078 19.832 26.1951 20.5448 26.1951 21.4248V25.2998C26.1951 26.1798 26.9078 26.8926 27.7878 26.8926C28.6678 26.8924 29.3806 26.1797 29.3806 25.2998V21.4248C29.3806 20.5449 28.6678 19.8322 27.7878 19.832Z" fill="#6E8FA2" stroke="#6E8FA2" stroke-width="1.28571"/>
<path d="M31.3375 37.8123C30.8125 39.2623 29.425 40.2998 27.8 40.2998C26.8125 40.2998 25.8375 39.8998 25.15 39.1873C24.75 38.8123 24.45 38.3123 24.275 37.7998C24.4375 37.8248 24.6 37.8373 24.775 37.8623C25.0625 37.8998 25.3625 37.9373 25.6625 37.9623C26.375 38.0248 27.1 38.0623 27.825 38.0623C28.5375 38.0623 29.25 38.0248 29.95 37.9623C30.2125 37.9373 30.475 37.9248 30.725 37.8873C30.925 37.8623 31.125 37.8373 31.3375 37.8123Z" fill="#6E8FA2"/>
<defs>
<linearGradient id="paint0_linear_1_6897" x1="27.8" y1="0.799805" x2="27.8" y2="54.7998" gradientUnits="userSpaceOnUse">
<stop stop-color="#2F5569"/>
<stop offset="1" stop-color="#2F5569" stop-opacity="0.5"/>
</linearGradient>
</defs>
</svg>
