<svg width="26" height="26" viewBox="0 0 26 26" fill="none" xmlns="http://www.w3.org/2000/svg">
<path d="M13.1733 11.7758C13.065 11.765 12.935 11.765 12.8158 11.7758C10.2375 11.6891 8.19 9.57663 8.19 6.97663C8.19 4.32246 10.335 2.16663 13 2.16663C15.6542 2.16663 17.81 4.32246 17.81 6.97663C17.7992 9.57663 15.7517 11.6891 13.1733 11.7758Z" stroke="white" stroke-width="1.625" stroke-linecap="round" stroke-linejoin="round"/>
<path d="M7.75667 15.7734C5.135 17.5284 5.135 20.3884 7.75667 22.1325C10.7358 24.1259 15.6217 24.1259 18.6008 22.1325C21.2225 20.3775 21.2225 17.5175 18.6008 15.7734C15.6325 13.7909 10.7467 13.7909 7.75667 15.7734Z" stroke="white" stroke-width="1.625" stroke-linecap="round" stroke-linejoin="round"/>
</svg>
