<svg width="150" height="150" viewBox="0 0 150 150" fill="none" xmlns="http://www.w3.org/2000/svg">
<rect width="150" height="150" rx="75" fill="#F7F8FA"/>
<g clip-path="url(#clip0_1925_438)">
<path d="M98.0979 61.5527L76.0188 50.3655L76.0097 50.3609C75.0266 49.8715 73.8584 49.8824 72.8845 50.3902L63.4148 55.416C63.3379 55.4486 63.264 55.4882 63.1932 55.5337L51.8453 61.5564C50.707 62.1523 50 63.3201 50 64.6054V85.3945C50 86.6798 50.707 87.8475 51.8453 88.4435L72.8751 99.6048L72.8846 99.6098C73.3813 99.8688 73.9286 99.9985 74.4761 99.9985C75.002 99.9985 75.528 99.8788 76.0097 99.639L98.0979 88.4472C99.2713 87.8604 100 86.6814 100 85.3691V64.6309C100 63.3185 99.2713 62.1395 98.0979 61.5527ZM74.2419 52.9853C74.3854 52.9116 74.5566 52.9102 74.7014 52.9812L95.3683 63.4528L87.3249 67.4572L67.1199 56.7651L74.2419 52.9853ZM72.9906 96.3506L53.2139 85.8542L53.2044 85.8492C53.0344 85.7605 52.9286 85.5863 52.9286 85.3945V65.9269L72.9906 76.3882V96.3506ZM74.4704 73.8569L54.5187 63.4531L63.9938 58.4245L84.0987 69.0635L74.4704 73.8569ZM97.0712 85.3689C97.0713 85.5649 96.9623 85.7409 96.7869 85.8282L75.9193 96.4016V76.407L85.5273 71.6236V76.6388C85.5273 77.4475 86.183 78.1031 86.9917 78.1031C87.8004 78.1031 88.4561 77.4475 88.4561 76.6388V70.1655L97.0712 65.8765V85.3689Z" fill="#785AEF"/>
</g>
<defs>
<clipPath id="clip0_1925_438">
<rect width="50" height="50" fill="white" transform="translate(50 50)"/>
</clipPath>
</defs>
</svg>
