<svg width="56" height="56" viewBox="0 0 56 56" fill="none" xmlns="http://www.w3.org/2000/svg">
<path d="M41 0.5C49.0081 0.5 55.5 6.99187 55.5 15V41C55.5 49.0081 49.0081 55.5 41 55.5H15C6.99187 55.5 0.5 49.0081 0.5 41V15L0.504883 14.626C0.703272 6.79071 7.11692 0.5 15 0.5H41Z" fill="url(#paint0_linear_18019_17975)"/>
<path d="M41 0.5C49.0081 0.5 55.5 6.99187 55.5 15V41C55.5 49.0081 49.0081 55.5 41 55.5H15C6.99187 55.5 0.5 49.0081 0.5 41V15L0.504883 14.626C0.703272 6.79071 7.11692 0.5 15 0.5H41Z" stroke="url(#paint1_linear_18019_17975)"/>
<path d="M28.3334 23.0416V29.1666" stroke="white" stroke-width="1.75" stroke-linecap="round" stroke-linejoin="round"/>
<path d="M38.9267 24.0101V31.99C38.9267 33.2967 38.2266 34.5101 37.095 35.1751L30.165 39.1767C29.0333 39.8301 27.6333 39.8301 26.4899 39.1767L19.5599 35.1751C18.4283 34.5218 17.7283 33.3084 17.7283 31.99V24.0101C17.7283 22.7034 18.4283 21.49 19.5599 20.825L26.4899 16.8234C27.6216 16.17 29.0216 16.17 30.165 16.8234L37.095 20.825C38.2266 21.49 38.9267 22.6917 38.9267 24.0101Z" stroke="white" stroke-width="1.75" stroke-linecap="round" stroke-linejoin="round"/>
<path d="M28.3334 32.8999V33.0166" stroke="white" stroke-width="2.33333" stroke-linecap="round" stroke-linejoin="round"/>
<defs>
<linearGradient id="paint0_linear_18019_17975" x1="28" y1="1" x2="28" y2="57.6129" gradientUnits="userSpaceOnUse">
<stop stop-color="#0E4041"/>
<stop offset="1" stop-color="#001018"/>
</linearGradient>
<linearGradient id="paint1_linear_18019_17975" x1="28" y1="1" x2="28" y2="57.6129" gradientUnits="userSpaceOnUse">
<stop stop-color="#00FFDB"/>
<stop offset="1" stop-color="#00FFDB" stop-opacity="0.15"/>
</linearGradient>
</defs>
</svg>
