<svg width="80" height="80" viewBox="0 0 80 80" fill="none" xmlns="http://www.w3.org/2000/svg">
<rect width="80" height="80" rx="40" fill="#785AEF" fill-opacity="0.1"/>
<path d="M48.4717 38.2858V43.9525C48.4717 44.3208 48.4575 44.675 48.415 45.015C48.0892 48.84 45.8367 50.7383 41.6858 50.7383H41.1192C40.765 50.7383 40.425 50.9083 40.2125 51.1917L38.5125 53.4583C37.7617 54.4642 36.5433 54.4642 35.7925 53.4583L34.0925 51.1917C33.9083 50.9508 33.4975 50.7383 33.1858 50.7383H32.6192C28.1 50.7383 25.8333 49.6192 25.8333 43.9525V38.2858C25.8333 34.135 27.7458 31.8825 31.5567 31.5567C31.8967 31.5142 32.2508 31.5 32.6192 31.5H41.6858C46.205 31.5 48.4717 33.7667 48.4717 38.2858Z" stroke="#785AEF" stroke-width="2.5" stroke-miterlimit="10" stroke-linecap="round" stroke-linejoin="round"/>
<path d="M54.1384 32.6191V38.2858C54.1384 42.4508 52.2259 44.6891 48.415 45.0149C48.4575 44.6749 48.4717 44.3208 48.4717 43.9524V38.2858C48.4717 33.7666 46.205 31.4999 41.6859 31.4999H32.6192C32.2509 31.4999 31.8967 31.5141 31.5567 31.5566C31.8825 27.7458 34.135 25.8333 38.2859 25.8333H47.3525C51.8717 25.8333 54.1384 28.0999 54.1384 32.6191Z" stroke="#785AEF" stroke-width="2.5" stroke-miterlimit="10" stroke-linecap="round" stroke-linejoin="round"/>
<path d="M42.1186 41.7708H42.1314" stroke="#785AEF" stroke-width="2.5" stroke-linecap="round" stroke-linejoin="round"/>
<path d="M37.1603 41.7708H37.173" stroke="#785AEF" stroke-width="2.5" stroke-linecap="round" stroke-linejoin="round"/>
<path d="M32.202 41.7708H32.2147" stroke="#785AEF" stroke-width="2.5" stroke-linecap="round" stroke-linejoin="round"/>
</svg>
