<svg width="80" height="80" viewBox="0 0 80 80" fill="none" xmlns="http://www.w3.org/2000/svg">
<rect width="80" height="80" rx="40" fill="white"/>
<path d="M35.9767 38.3992C35.835 38.385 35.665 38.385 35.5092 38.3992C32.1375 38.2859 29.46 35.5234 29.46 32.1234C29.46 28.6525 32.265 25.8334 35.75 25.8334C39.2209 25.8334 42.04 28.6525 42.04 32.1234C42.0259 35.5234 39.3484 38.2859 35.9767 38.3992Z" stroke="#785AEF" stroke-width="2.5" stroke-linecap="round" stroke-linejoin="round"/>
<path d="M46.2475 28.6666C48.9959 28.6666 51.2059 30.8908 51.2059 33.625C51.2059 36.3025 49.0809 38.4841 46.4317 38.5833C46.3184 38.5691 46.1909 38.5691 46.0634 38.5833" stroke="#785AEF" stroke-width="2.5" stroke-linecap="round" stroke-linejoin="round"/>
<path d="M28.8933 43.6266C25.465 45.9216 25.465 49.6616 28.8933 51.9425C32.7892 54.5491 39.1783 54.5491 43.0742 51.9425C46.5025 49.6475 46.5025 45.9075 43.0742 43.6266C39.1925 41.0341 32.8033 41.0341 28.8933 43.6266Z" stroke="#785AEF" stroke-width="2.5" stroke-linecap="round" stroke-linejoin="round"/>
<path d="M48.9817 51.3334C50.0017 51.1209 50.965 50.71 51.7584 50.1009C53.9684 48.4434 53.9684 45.7092 51.7584 44.0517C50.9792 43.4567 50.03 43.06 49.0242 42.8334" stroke="#785AEF" stroke-width="2.5" stroke-linecap="round" stroke-linejoin="round"/>
</svg>
