<svg width="56" height="56" viewBox="0 0 56 56" fill="none" xmlns="http://www.w3.org/2000/svg">
<circle cx="27.8" cy="27.7998" r="27.4" fill="#469093" fill-opacity="0.1" stroke="url(#paint0_linear_1_6900)" stroke-width="0.8"/>
<path d="M17.8 36.2998C17.8 35.5037 17.8 35.1056 17.844 34.7714C18.1479 32.4636 19.9639 30.6476 22.2716 30.3438C22.6058 30.2998 23.0039 30.2998 23.8 30.2998H31.8C32.5962 30.2998 32.9943 30.2998 33.3285 30.3438C35.6362 30.6476 37.4522 32.4636 37.756 34.7714C37.8 35.1056 37.8 35.5037 37.8 36.2998C37.8 36.8306 37.8 37.096 37.7707 37.3187C37.5682 38.8573 36.3575 40.0679 34.819 40.2705C34.5962 40.2998 34.3308 40.2998 33.8 40.2998H21.8C21.2693 40.2998 21.0039 40.2998 20.7811 40.2705C19.2426 40.0679 18.0319 38.8573 17.8294 37.3187C17.8 37.096 17.8 36.8306 17.8 36.2998Z" fill="#6E8FA2"/>
<path d="M32.8 20.2998C32.8 23.0612 30.5615 25.2998 27.8 25.2998C25.0386 25.2998 22.8 23.0612 22.8 20.2998C22.8 17.5384 25.0386 15.2998 27.8 15.2998C30.5615 15.2998 32.8 17.5384 32.8 20.2998Z" fill="#6E8FA2"/>
<path d="M17.8 36.2998C17.8 35.5037 17.8 35.1056 17.844 34.7714C18.1479 32.4636 19.9639 30.6476 22.2716 30.3438C22.6058 30.2998 23.0039 30.2998 23.8 30.2998H31.8C32.5962 30.2998 32.9943 30.2998 33.3285 30.3438C35.6362 30.6476 37.4522 32.4636 37.756 34.7714C37.8 35.1056 37.8 35.5037 37.8 36.2998C37.8 36.8306 37.8 37.096 37.7707 37.3187C37.5682 38.8573 36.3575 40.0679 34.819 40.2705C34.5962 40.2998 34.3308 40.2998 33.8 40.2998H21.8C21.2693 40.2998 21.0039 40.2998 20.7811 40.2705C19.2426 40.0679 18.0319 38.8573 17.8294 37.3187C17.8 37.096 17.8 36.8306 17.8 36.2998Z" stroke="#6E8FA2" stroke-width="1.28571" stroke-linecap="round" stroke-linejoin="round"/>
<path d="M32.8 20.2998C32.8 23.0612 30.5615 25.2998 27.8 25.2998C25.0386 25.2998 22.8 23.0612 22.8 20.2998C22.8 17.5384 25.0386 15.2998 27.8 15.2998C30.5615 15.2998 32.8 17.5384 32.8 20.2998Z" stroke="#6E8FA2" stroke-width="1.28571" stroke-linecap="round" stroke-linejoin="round"/>
<defs>
<linearGradient id="paint0_linear_1_6900" x1="27.8" y1="0.799805" x2="27.8" y2="54.7998" gradientUnits="userSpaceOnUse">
<stop stop-color="#2F5569"/>
<stop offset="1" stop-color="#2F5569" stop-opacity="0.5"/>
</linearGradient>
</defs>
</svg>
