<svg width="80" height="80" viewBox="0 0 80 80" fill="none" xmlns="http://www.w3.org/2000/svg">
<rect width="80" height="80" rx="40" fill="white"/>
<path d="M54.1667 51.4326V40.255C54.1667 32.3217 47.7917 25.8334 40 25.8334C32.2083 25.8334 25.8333 32.3217 25.8333 40.255V51.4326C25.8333 53.2176 26.8958 53.6992 28.1992 52.5092L29.6158 51.2201C30.14 50.7384 30.99 50.7384 31.5142 51.2201L34.3475 53.8125C34.8717 54.2942 35.7216 54.2942 36.2458 53.8125L39.0791 51.2201C39.6033 50.7384 40.4533 50.7384 40.9775 51.2201L43.8108 53.8125C44.335 54.2942 45.1851 54.2942 45.7092 53.8125L48.5426 51.2201C49.0667 50.7384 49.9167 50.7384 50.4408 51.2201L51.8575 52.5092C53.1042 53.6992 54.1667 53.2176 54.1667 51.4326Z" stroke="#785AEF" stroke-width="2.5" stroke-linecap="round" stroke-linejoin="round"/>
<path d="M34.3333 42.8334C37.6908 45.355 42.3092 45.355 45.6667 42.8334" stroke="#785AEF" stroke-width="2.5" stroke-linecap="round" stroke-linejoin="round"/>
<path d="M40 38.5833C41.5648 38.5833 42.8333 37.3148 42.8333 35.75C42.8333 34.1852 41.5648 32.9166 40 32.9166C38.4352 32.9166 37.1667 34.1852 37.1667 35.75C37.1667 37.3148 38.4352 38.5833 40 38.5833Z" stroke="#785AEF" stroke-width="2.5" stroke-linecap="round" stroke-linejoin="round"/>
</svg>
