<svg width="150" height="150" viewBox="0 0 150 150" fill="none" xmlns="http://www.w3.org/2000/svg">
<rect width="150" height="150" rx="75" fill="#F7F8FA"/>
<mask id="mask0_1925_429" style="mask-type:luminance" maskUnits="userSpaceOnUse" x="54" y="50" width="50" height="50">
<path d="M54 50H104V100H54V50Z" fill="white"/>
</mask>
<g mask="url(#mask0_1925_429)">
<path d="M89.9832 68.7239C89.9832 68.7239 94.0194 65.6964 97.5144 63.0754C98.4652 62.3623 99.7376 62.2478 100.801 62.779C101.864 63.3108 102.535 64.3973 102.535 65.5859V84.414C102.535 85.6025 101.864 86.689 100.801 87.221C99.7376 87.7521 98.4652 87.6376 97.5144 86.9245C94.0194 84.3034 89.9832 81.2759 89.9832 81.2759V68.7239Z" stroke="#785AEF" stroke-width="3" stroke-miterlimit="10" stroke-linecap="round" stroke-linejoin="round"/>
<path d="M86.845 59.3099C87.6773 59.3099 88.4752 59.6402 89.0636 60.2293C89.6527 60.8177 89.983 61.6156 89.983 62.4479V87.5521C89.983 88.3844 89.6527 89.1823 89.0636 89.7706C88.4752 90.3598 87.6773 90.6901 86.845 90.6901H58.6028C57.7704 90.6901 56.9726 90.3598 56.3843 89.7706C55.795 89.1823 55.4648 88.3844 55.4648 87.5521V62.4479C55.4648 61.6156 55.795 60.8177 56.3843 60.2293C56.9726 59.6402 57.7704 59.3099 58.6028 59.3099H86.845Z" stroke="#785AEF" stroke-width="3" stroke-miterlimit="10" stroke-linecap="round" stroke-linejoin="round"/>
<path d="M64.879 64.8265C66.6112 64.8265 68.0169 66.2331 68.0169 67.9645C68.0169 69.6967 66.6112 71.1025 64.879 71.1025C63.1467 71.1025 61.741 69.6967 61.741 67.9645C61.741 66.2331 63.1467 64.8265 64.879 64.8265Z" stroke="#785AEF" stroke-width="3" stroke-miterlimit="10" stroke-linecap="round" stroke-linejoin="round"/>
</g>
</svg>
