<svg width="56" height="56" viewBox="0 0 56 56" fill="none" xmlns="http://www.w3.org/2000/svg">
<path d="M41 0.5C49.0081 0.5 55.5 6.99187 55.5 15V41C55.5 49.0081 49.0081 55.5 41 55.5H15C6.99187 55.5 0.5 49.0081 0.5 41V15L0.504883 14.626C0.703272 6.79071 7.11692 0.5 15 0.5H41Z" fill="url(#paint0_linear_18019_17979)"/>
<path d="M41 0.5C49.0081 0.5 55.5 6.99187 55.5 15V41C55.5 49.0081 49.0081 55.5 41 55.5H15C6.99187 55.5 0.5 49.0081 0.5 41V15L0.504883 14.626C0.703272 6.79071 7.11692 0.5 15 0.5H41Z" stroke="url(#paint1_linear_18019_17979)"/>
<path d="M36.85 23.24V29.2483C36.85 32.8417 34.7966 34.3816 31.7166 34.3816H21.4616C20.9366 34.3816 20.435 34.335 19.9683 34.23C19.6766 34.1834 19.3966 34.1017 19.14 34.0084C17.39 33.355 16.3283 31.8383 16.3283 29.2483V23.24C16.3283 19.6466 18.3816 18.1067 21.4616 18.1067H31.7166C34.33 18.1067 36.2083 19.215 36.71 21.7467C36.7916 22.2134 36.85 22.6916 36.85 23.24Z" stroke="white" stroke-width="1.75" stroke-miterlimit="10" stroke-linecap="round" stroke-linejoin="round"/>
<path d="M40.3513 26.7401V32.7485C40.3513 36.3418 38.2979 37.8818 35.2179 37.8818H24.9629C24.0996 37.8818 23.3179 37.7652 22.6413 37.5085C21.2529 36.9952 20.3079 35.9335 19.9696 34.2302C20.4363 34.3352 20.9379 34.3818 21.4629 34.3818H31.7179C34.7979 34.3818 36.8513 32.8418 36.8513 29.2485V23.2401C36.8513 22.6918 36.8046 22.2018 36.7113 21.7468C38.9279 22.2135 40.3513 23.7768 40.3513 26.7401Z" stroke="white" stroke-width="1.75" stroke-miterlimit="10" stroke-linecap="round" stroke-linejoin="round"/>
<path d="M26.5815 29.3298C28.2826 29.3298 29.6616 27.9509 29.6616 26.2498C29.6616 24.5488 28.2826 23.1698 26.5815 23.1698C24.8805 23.1698 23.5015 24.5488 23.5015 26.2498C23.5015 27.9509 24.8805 29.3298 26.5815 29.3298Z" stroke="white" stroke-width="1.75" stroke-miterlimit="10" stroke-linecap="round" stroke-linejoin="round"/>
<path d="M19.91 23.6833V28.8167" stroke="white" stroke-width="1.75" stroke-miterlimit="10" stroke-linecap="round" stroke-linejoin="round"/>
<path d="M33.2587 23.6837V28.8171" stroke="white" stroke-width="1.75" stroke-miterlimit="10" stroke-linecap="round" stroke-linejoin="round"/>
<defs>
<linearGradient id="paint0_linear_18019_17979" x1="28" y1="1" x2="28" y2="57.6129" gradientUnits="userSpaceOnUse">
<stop stop-color="#0E4041"/>
<stop offset="1" stop-color="#001018"/>
</linearGradient>
<linearGradient id="paint1_linear_18019_17979" x1="28" y1="1" x2="28" y2="57.6129" gradientUnits="userSpaceOnUse">
<stop stop-color="#00FFDB"/>
<stop offset="1" stop-color="#00FFDB" stop-opacity="0.15"/>
</linearGradient>
</defs>
</svg>
